<svg xmlns="http://www.w3.org/2000/svg" viewBox="0 0 150 36" width="150" height="36" fill="none">
  <defs>
    <!-- Import Syne font from Google Fonts -->
    <style>
      @import url('https://fonts.googleapis.com/css2?family=Syne:wght@800&amp;display=swap');
      .logo-text {
        font-family: 'Syne', sans-serif;
        font-size: 22px;
        font-weight: 800;
        fill: #FFFFFF;
      }
    </style>
  </defs>
  <!-- Logo Mark -->
  <rect width="36" height="36" rx="10" fill="#00C896" />
  <g transform="translate(6, 6)">
    <path d="M19 7V4a1 1 0 0 0-1-1H6a2 2 0 0 0 0 4h15a1 1 0 0 1 1 1v10a1 1 0 0 1-1 1H6a2 2 0 0 1 0-4h15a1 1 0 0 0 1-1v-5" 
          stroke="#000000" stroke-width="2.5" stroke-linecap="round" stroke-linejoin="round" fill="none" />
  </g>
  <!-- Text -->
  <text x="48" y="26" class="logo-text">FinFlow</text>
</svg>
